<svg xmlns="http://www.w3.org/2000/svg" xmlns:xlink="http://www.w3.org/1999/xlink" width="500" zoomAndPan="magnify" viewBox="0 0 375 374.999991" height="500" preserveAspectRatio="xMidYMid meet" version="1.0"><defs><clipPath id="6ec88c5a2e"><path d="M 66.835938 9.726562 L 307.585938 9.726562 L 307.585938 365 L 66.835938 365 Z M 66.835938 9.726562 " clip-rule="nonzero"/></clipPath></defs><g clip-path="url(#6ec88c5a2e)"><path fill="#f08080" d="M 187.484375 9.726562 C 120.953125 9.726562 66.871094 63.742188 66.871094 130.214844 C 66.871094 147.890625 74.398438 170.324219 85.265625 195.027344 C 96.128906 219.734375 110.503906 246.464844 124.863281 271.1875 C 153.574219 320.636719 182.269531 362.113281 182.269531 362.113281 C 182.414062 362.324219 182.574219 362.523438 182.742188 362.714844 C 182.910156 362.90625 183.09375 363.085938 183.285156 363.253906 C 183.476562 363.425781 183.675781 363.582031 183.886719 363.726562 C 184.097656 363.871094 184.3125 364.003906 184.539062 364.121094 C 184.765625 364.238281 185 364.34375 185.238281 364.433594 C 185.476562 364.523438 185.71875 364.601562 185.96875 364.660156 C 186.214844 364.722656 186.46875 364.769531 186.71875 364.800781 C 186.972656 364.828125 187.226562 364.84375 187.484375 364.84375 C 187.738281 364.84375 187.992188 364.828125 188.246094 364.800781 C 188.5 364.769531 188.75 364.722656 189 364.660156 C 189.246094 364.601562 189.492188 364.523438 189.730469 364.433594 C 189.96875 364.34375 190.199219 364.238281 190.425781 364.121094 C 190.652344 364.003906 190.871094 363.871094 191.082031 363.726562 C 191.292969 363.582031 191.492188 363.425781 191.683594 363.253906 C 191.875 363.085938 192.054688 362.90625 192.226562 362.714844 C 192.394531 362.523438 192.554688 362.324219 192.699219 362.113281 C 192.699219 362.113281 221.390625 320.636719 250.105469 271.1875 C 264.464844 246.464844 278.839844 219.734375 289.703125 195.027344 C 300.570312 170.324219 308.097656 147.890625 308.097656 130.214844 C 308.097656 63.742188 254.015625 9.726562 187.484375 9.726562 Z M 187.484375 45.210938 C 234.28125 45.210938 272.351562 83.28125 272.351562 130.078125 C 272.351562 176.875 234.28125 214.957031 187.484375 214.957031 C 140.6875 214.957031 102.617188 176.875 102.617188 130.078125 C 102.617188 83.28125 140.6875 45.210938 187.484375 45.210938 Z M 187.484375 45.210938 " fill-opacity="1" fill-rule="nonzero"/></g><path fill="#f08080" d="M 172.734375 79.480469 C 172.316406 79.480469 171.902344 79.523438 171.496094 79.605469 C 171.085938 79.683594 170.691406 79.804688 170.304688 79.964844 C 169.921875 80.125 169.554688 80.320312 169.210938 80.550781 C 168.863281 80.78125 168.542969 81.046875 168.25 81.339844 C 167.953125 81.632812 167.691406 81.953125 167.460938 82.300781 C 167.230469 82.648438 167.03125 83.011719 166.875 83.398438 C 166.714844 83.78125 166.59375 84.179688 166.511719 84.585938 C 166.429688 84.996094 166.390625 85.40625 166.390625 85.824219 L 166.390625 108.984375 L 143.230469 108.984375 C 142.8125 108.984375 142.402344 109.027344 141.992188 109.105469 C 141.585938 109.1875 141.1875 109.308594 140.804688 109.46875 C 140.417969 109.628906 140.050781 109.824219 139.707031 110.054688 C 139.359375 110.285156 139.039062 110.546875 138.746094 110.84375 C 138.453125 111.136719 138.1875 111.457031 137.957031 111.804688 C 137.726562 112.148438 137.53125 112.515625 137.371094 112.898438 C 137.210938 113.285156 137.089844 113.679688 137.011719 114.089844 C 136.929688 114.496094 136.886719 114.910156 136.886719 115.328125 L 136.886719 144.84375 C 136.886719 145.257812 136.929688 145.671875 137.011719 146.078125 C 137.089844 146.488281 137.210938 146.882812 137.371094 147.269531 C 137.53125 147.652344 137.726562 148.019531 137.957031 148.363281 C 138.1875 148.710938 138.453125 149.03125 138.746094 149.324219 C 139.039062 149.621094 139.359375 149.882812 139.707031 150.113281 C 140.054688 150.347656 140.417969 150.542969 140.804688 150.699219 C 141.1875 150.859375 141.585938 150.980469 141.992188 151.0625 C 142.402344 151.144531 142.8125 151.183594 143.230469 151.183594 L 166.390625 151.183594 L 166.390625 174.34375 C 166.390625 174.761719 166.429688 175.171875 166.511719 175.582031 C 166.59375 175.992188 166.714844 176.386719 166.875 176.773438 C 167.03125 177.15625 167.230469 177.523438 167.460938 177.867188 C 167.691406 178.214844 167.953125 178.535156 168.25 178.828125 C 168.542969 179.125 168.863281 179.386719 169.210938 179.617188 C 169.554688 179.847656 169.921875 180.042969 170.304688 180.203125 C 170.691406 180.363281 171.085938 180.484375 171.496094 180.566406 C 171.902344 180.644531 172.316406 180.6875 172.734375 180.6875 L 202.234375 180.6875 C 202.652344 180.6875 203.0625 180.644531 203.472656 180.566406 C 203.882812 180.484375 204.277344 180.363281 204.660156 180.203125 C 205.046875 180.042969 205.414062 179.847656 205.757812 179.617188 C 206.105469 179.386719 206.425781 179.125 206.71875 178.828125 C 207.015625 178.535156 207.277344 178.214844 207.507812 177.867188 C 207.738281 177.523438 207.933594 177.15625 208.09375 176.773438 C 208.253906 176.386719 208.375 175.992188 208.453125 175.582031 C 208.535156 175.171875 208.578125 174.761719 208.578125 174.34375 L 208.578125 151.183594 L 231.738281 151.183594 C 232.15625 151.183594 232.566406 151.144531 232.976562 151.0625 C 233.382812 150.980469 233.78125 150.859375 234.164062 150.699219 C 234.550781 150.542969 234.914062 150.347656 235.261719 150.113281 C 235.609375 149.882812 235.929688 149.621094 236.222656 149.324219 C 236.515625 149.03125 236.78125 148.710938 237.011719 148.363281 C 237.242188 148.019531 237.4375 147.652344 237.597656 147.269531 C 237.757812 146.882812 237.875 146.488281 237.957031 146.078125 C 238.039062 145.671875 238.078125 145.257812 238.078125 144.84375 L 238.078125 115.328125 C 238.078125 114.910156 238.039062 114.496094 237.957031 114.089844 C 237.875 113.679688 237.757812 113.285156 237.597656 112.898438 C 237.4375 112.515625 237.242188 112.148438 237.011719 111.804688 C 236.78125 111.457031 236.515625 111.136719 236.222656 110.84375 C 235.929688 110.546875 235.609375 110.285156 235.261719 110.054688 C 234.914062 109.824219 234.550781 109.628906 234.164062 109.46875 C 233.78125 109.308594 233.382812 109.1875 232.976562 109.105469 C 232.566406 109.027344 232.15625 108.984375 231.738281 108.984375 L 208.578125 108.984375 L 208.578125 85.824219 C 208.578125 85.40625 208.535156 84.996094 208.453125 84.585938 C 208.375 84.179688 208.253906 83.78125 208.09375 83.398438 C 207.933594 83.011719 207.738281 82.648438 207.507812 82.300781 C 207.277344 81.953125 207.015625 81.632812 206.71875 81.339844 C 206.425781 81.046875 206.105469 80.78125 205.757812 80.550781 C 205.414062 80.320312 205.046875 80.125 204.660156 79.964844 C 204.277344 79.804688 203.878906 79.683594 203.472656 79.605469 C 203.0625 79.523438 202.652344 79.480469 202.234375 79.480469 Z M 172.734375 79.480469 " fill-opacity="1" fill-rule="nonzero"/></svg>